<svg width="204" height="204" viewBox="0 0 204 204" fill="none" xmlns="http://www.w3.org/2000/svg">

<!-- This path is the circle -->
<path d="M187.639 69.9021C193.092 67.8586 199.226 70.6143 200.696 76.2484C206.238 97.4863 204.802 120.051 196.436 140.546C186.737 164.31 168.435 183.543 145.182 194.409C121.928 205.275 95.4333 206.975 70.9821 199.169C46.5309 191.364 25.9211 174.628 13.2642 152.299C0.607328 129.97 -3.16618 103.69 2.6965 78.7016C8.55918 53.7134 23.627 31.854 44.8941 17.4842C66.1612 3.11439 92.0641 -2.7094 117.435 1.17464C139.317 4.52444 159.415 14.8827 174.791 30.5466C178.869 34.702 178.083 41.3805 173.529 45.009C168.975 48.6374 162.385 47.8272 158.195 43.7832C146.212 32.2155 130.877 24.5642 114.244 22.0179C94.1181 18.9368 73.5701 23.5566 56.6994 34.9558C39.8288 46.355 27.8758 63.6955 23.2251 83.518C18.5744 103.34 21.5679 124.188 31.6082 141.901C41.6486 159.614 57.9979 172.89 77.3943 179.082C96.7908 185.274 117.809 183.925 136.255 175.305C154.701 166.686 169.219 151.429 176.914 132.578C183.273 116.999 184.584 99.9117 180.815 83.688C179.497 78.0164 182.187 71.9457 187.639 69.9021Z" fill="url(#paint0_linear_16_339)"/>


<!-- Convert text to SVG -->
<!-- https://danmarshall.github.io/google-font-to-svg-path/ -->



<!-- This path is the "2+" and is translated it to center of circle -->
<g transform="translate(65, 75)" id="svgGroup" stroke-linecap="round" fill-rule="evenodd" font-size="9pt" stroke="#FFFFFF" stroke-width="0.25mm" fill="#FFFFFF" style="stroke:#FFFFFF;stroke-width:0.25mm;fill:#FFFFFF">
<path d="M 0.216 17.714 L 8.568 17.714 A 11.511 11.511 0 0 1 9.705 12.578 A 7.923 7.923 0 0 1 16.992 7.994 A 8.308 8.308 0 0 1 22.577 10.067 C 24.199 11.519 25.2 13.628 25.2 16.058 A 8.938 8.938 0 0 1 24.963 18.121 C 24.371 20.631 22.634 23.14 19.296 26.138 L 0 43.49 L 0 50.33 L 34.272 50.33 L 34.272 42.626 L 12.168 42.626 L 23.976 32.258 A 65.141 65.141 0 0 0 26.964 29.426 C 29.015 27.341 30.569 25.397 31.67 23.453 A 15.485 15.485 0 0 0 33.768 15.554 C 33.768 7.466 28.102 1.438 20.036 0.226 A 20.478 20.478 0 0 0 16.992 0.002 C 8.595 0.002 2.547 4.998 0.761 12.743 A 22.111 22.111 0 0 0 0.216 17.714 Z M 40.68 29.81 L 53.784 29.81 L 53.784 43.274 L 60.696 43.274 L 60.696 29.81 L 73.8 29.81 L 73.8 22.826 L 60.696 22.826 L 60.696 9.506 L 53.784 9.506 L 53.784 22.826 L 40.68 22.826 L 40.68 29.81 Z" vector-effect="non-scaling-stroke"/>
</g>




<defs>
<linearGradient id="paint0_linear_16_339" x1="-12.4348" y1="91.2145" x2="228.124" y2="92.098" gradientUnits="userSpaceOnUse">
<stop stop-color="#263444"/>

<stop offset="1" stop-color="#d6dcdf"/>

</linearGradient>
</defs>
</svg>


